<svg height="409pt" viewBox="-7 0 409 409.59815" width="409pt" xmlns="http://www.w3.org/2000/svg"><path d="m239.230469 170.664062s-40.957031-40.960937-109.226563-61.4375c-49.796875-14.941406-68.265625-102.402343-68.265625-102.402343s-61.4375 81.921875-13.652343 95.574219c0 0-34.132813 54.613281 20.480468 61.441406 0 0-20.480468 40.957031 27.304688 40.957031 0 0 0 54.613281 61.441406 47.789063 0 0-20.480469 40.957031 27.304688 40.957031 0 0-40.957032 40.960937-95.570313 40.960937 0 0 75.09375 13.652344 129.707031 61.441406 0 0 6.824219-54.613281 34.132813-68.265624 27.304687-13.65625 54.613281-27.308594 54.613281-109.226563 0-81.921875 27.304688-54.613281 27.304688-54.613281s-34.132813-47.789063-95.574219 6.824218zm0 0" fill="#0e65e5"/><path d="m218.753906 402.769531c-1.628906 0-3.230468-.578125-4.5-1.683593-52.484375-45.933594-125.699218-59.726563-126.433594-59.867188-3.472656-.632812-5.890624-3.8125-5.570312-7.328125.316406-3.519531 3.265625-6.210937 6.796875-6.210937 34.671875 0 63.824219-17.695313 79.152344-29.234376-8.253907-2.234374-14.296875-6.394531-18.039063-12.453124-5.238281-8.476563-4.441406-18.566407-2.636718-25.988282-16.800782-.054687-30.054688-4.445312-40.203126-13.527344-12.558593-11.238281-16.488281-26.488281-17.714843-35.09375-13.585938-1.078124-23.054688-5.820312-28.195313-14.136718-5.765625-9.335938-4.214844-20.628906-2.0625-28.160156-12.5-3.082032-21.035156-9.300782-25.433594-18.546876-7.300781-15.355468-.316406-34.507812 4.570313-44.679687-8.152344-4.414063-11.910156-10.835937-13.636719-15.972656-10.214844-30.363281 27.136719-81.433594 31.433594-87.15625 1.597656-2.136719 4.292969-3.136719 6.929688-2.570313 2.613281.578125 4.652343 2.632813 5.207031 5.25.179687.835938 18.234375 83.679688 63.550781 97.273438 56.765625 17.035156 94.734375 47.523437 107.445312 58.835937 21.5625-17.808593 42.449219-25.660156 62.109376-23.5 24.96875 2.804688 38.28125 21.074219 38.839843 21.851563 2.0625 2.886718 1.566407 6.878906-1.144531 9.175781-2.714844 2.300781-6.730469 2.125-9.238281-.382813-.621094-.59375-3.714844-3-5.636719-2.199218-1.023438.4375-10.019531 5.605468-10.019531 51.988281 0 86.140625-29.683594 100.976563-58.386719 115.332031-19.71875 9.859375-28.636719 48.824219-30.410156 63.007813-.316406 2.503906-1.984375 4.632812-4.34375 5.53125-.792969.300781-1.613282.445312-2.429688.445312zm-95.597656-66.292969c24.917969 8.046876 59.992188 22.519532 90.929688 46.75 3.84375-17.875 13.707031-50.636718 35.746093-61.65625 26.148438-13.074218 50.839844-25.417968 50.839844-103.117187 0-34.394531 4.601563-54.429687 14.394531-62.199219-4.21875-2.222656-9.332031-4.054687-15.28125-4.6875-17.019531-1.921875-35.886718 6.304688-56.015625 24.199219-2.703125 2.40625-6.800781 2.273437-9.359375-.265625-.398437-.398438-40.699218-40.035156-106.363281-59.734375-40.488281-12.144531-61.222656-66.179687-69.125-92.773437-11.640625 18.246093-26.4375 46.796874-21.132813 62.546874 1.734376 5.148438 5.601563 8.421876 12.175782 10.292969 2.054687.59375 3.71875 2.113281 4.488281 4.113281.773437 2 .558594 4.246094-.570313 6.066407-4.105468 6.601562-13.472656 26.425781-7.625 38.679687 3.191407 6.6875 10.984376 10.855469 23.15625 12.375 2.199219.273438 4.125 1.601563 5.171876 3.554688 1.042968 1.953125 1.078124 4.292968.089843 6.273437-1.972656 3.992188-6.117187 15.984375-1.632812 23.199219 4.050781 6.511719 14.648437 7.878906 22.828125 7.878906 3.769531 0 6.828125 3.050782 6.828125 6.824219 0 .175781.289062 19.566406 13.816406 31.589844 9.203125 8.179687 22.683594 11.34375 40.042969 9.414062 2.5-.253906 4.925781.832031 6.355468 2.878907 1.429688 2.054687 1.621094 4.722656.507813 6.960937-1.972656 3.992187-6.117187 15.984375-1.632813 23.199219 4.050782 6.511718 14.648438 7.878906 22.828126 7.878906 2.761718 0 5.25 1.660156 6.308593 4.214844 1.054688 2.550781.472657 5.484375-1.480469 7.4375-1.378906 1.378906-27.550781 27.152344-66.289062 38.105468zm0 0" fill="#0e65e5"/><path d="m252.886719 170.664062s-40.960938-40.960937-109.226563-61.4375c-49.796875-14.941406-81.921875-102.402343-81.921875-102.402343s-40.960937 81.921875 6.828125 95.574219c0 0-34.132812 54.613281 20.480469 61.441406 0 0-20.480469 40.957031 27.304687 40.957031 0 0 0 54.613281 61.441407 47.789063 0 0-20.480469 40.957031 27.304687 40.957031 0 0-47.785156 40.960937-102.398437 40.960937 0 0 68.265625 20.480469 122.878906 68.265625 0 0 6.828125-54.613281 34.132813-68.265625 27.308593-13.652344 54.613281-27.304687 54.613281-109.226562 0-81.917969 40.960937-54.613282 40.960937-54.613282s-40.960937-54.613281-102.398437 0zm0 0" fill="#d7e9ff"/><g fill="#0e65e5"><path d="m225.578125 409.597656c-1.625 0-3.230469-.578125-4.496094-1.6875-52.796875-46.199218-119.675781-66.664062-120.347656-66.867187-3.242187-.976563-5.285156-4.179688-4.789063-7.53125.492188-3.355469 3.367188-5.832031 6.753907-5.832031 34.875 0 67.339843-17.949219 84.734375-29.59375-7.621094-2.300782-13.242188-6.347657-16.796875-12.09375-5.234375-8.476563-4.4375-18.566407-2.636719-25.988282-16.824219-.054687-30.050781-4.445312-40.203125-13.527344-12.554687-11.238281-16.484375-26.488281-17.714844-35.09375-13.585937-1.078124-23.050781-5.820312-28.191406-14.136718-5.769531-9.335938-4.21875-20.628906-2.0625-28.160156-12.5-3.082032-21.039063-9.300782-25.433594-18.546876-7.285156-15.316406-.355469-34.40625 4.527344-44.601562-7.433594-3.792969-12.914063-9.621094-16.339844-17.398438-13.570312-30.859374 11.953125-82.582031 13.050781-84.765624 1.210938-2.4375 3.65625-3.921876 6.484376-3.7617192 2.71875.1484372 5.085937 1.8984372 6.027343 4.4609372.308594.839844 31.546875 84.433594 77.476563 98.210938 56.785156 17.039062 94.757812 47.546875 107.460937 58.84375 20.027344-16.355469 40.140625-23.621094 59.992188-21.640625 29.574219 2.972656 46.945312 25.71875 47.667969 26.683593 2 2.664063 1.785156 6.367188-.5 8.789063-2.28125 2.417969-5.980469 2.832031-8.746094.984375-.058594-.035156-9.074219-5.765625-16.34375-1.832031-5.226563 2.839843-14 13.214843-14 50.765625 0 86.140625-29.683594 100.980468-58.386719 115.332031-19.71875 9.859375-28.640625 48.828125-30.414063 63.007813-.3125 2.507812-1.980468 4.632812-4.34375 5.535156-.789062.300781-1.609374.445312-2.429687.445312zm-93.875-71.660156c23.085937 9.605469 57.460937 26.480469 89.226563 52.027344 3.859374-17.886719 13.730468-50.570313 35.730468-61.566406 26.144532-13.074219 50.839844-25.421876 50.839844-103.121094 0-34.617188 6.957031-55.171875 21.277344-62.832032 1.4375-.773437 2.882812-1.367187 4.316406-1.820312-5.867188-3.425781-13.132812-6.351562-21.542969-7.171875-17.347656-1.679687-35.566406 5.8125-54.128906 22.3125-2.699219 2.40625-6.800781 2.273437-9.359375-.265625-.398438-.398438-40.699219-40.035156-106.363281-59.734375-39.765625-11.933594-68.085938-64.878906-80.054688-91.425781-6.628906 17.585937-13.363281 43.253906-6.554687 58.714844 2.847656 6.457031 7.871094 10.644531 15.351562 12.777343 2.058594.59375 3.722656 2.113281 4.492188 4.113281.769531 2 .554687 4.246094-.574219 6.066407-4.101563 6.601562-13.46875 26.425781-7.625 38.679687 3.191406 6.6875 10.984375 10.855469 23.15625 12.375 2.203125.273438 4.128906 1.601563 5.175781 3.554688 1.042969 1.953125 1.074219 4.292968.085938 6.273437-1.96875 3.992188-6.117188 15.984375-1.628906 23.199219 4.046874 6.511719 14.648437 7.878906 22.828124 7.878906 3.769532 0 6.828126 3.050782 6.828126 6.824219 0 .175781.289062 19.566406 13.816406 31.589844 9.199218 8.179687 22.667968 11.34375 40.042968 9.414062 2.511719-.253906 4.925782.832031 6.355469 2.878907 1.429688 2.054687 1.621094 4.722656.507813 6.960937-1.972656 3.992187-6.117188 15.984375-1.632813 23.199219 4.050781 6.511718 14.648438 7.878906 22.828125 7.878906 2.859375 0 5.410156 1.78125 6.40625 4.457031.988282 2.679688.207032 5.695313-1.960937 7.546875-1.671875 1.433594-34.707031 29.375-77.839844 39.214844zm0 0"/><path d="m232.40625 102.398438c-3.769531 0-6.828125-3.054688-6.828125-6.828126v-27.304687c0-3.773437 3.058594-6.828125 6.828125-6.828125s6.824219 3.054688 6.824219 6.828125v27.304687c0 3.773438-3.054688 6.828126-6.824219 6.828126zm0 0"/><path d="m246.058594 88.746094h-27.304688c-3.773437 0-6.828125-3.054688-6.828125-6.828125 0-3.773438 3.054688-6.828125 6.828125-6.828125h27.304688c3.769531 0 6.828125 3.054687 6.828125 6.828125 0 3.773437-3.058594 6.828125-6.828125 6.828125zm0 0"/><path d="m375.765625 327.679688c-3.769531 0-6.828125-3.054688-6.828125-6.828126v-27.308593c0-3.773438 3.058594-6.824219 6.828125-6.824219s6.828125 3.050781 6.828125 6.824219v27.308593c0 3.773438-3.058594 6.828126-6.828125 6.828126zm0 0"/><path d="m389.417969 314.023438h-27.304688c-3.769531 0-6.828125-3.050782-6.828125-6.824219 0-3.773438 3.058594-6.828125 6.828125-6.828125h27.304688c3.769531 0 6.828125 3.054687 6.828125 6.828125 0 3.773437-3.058594 6.824219-6.828125 6.824219zm0 0"/><path d="m20.777344 286.71875c-3.769532 0-6.824219-3.054688-6.824219-6.828125v-27.304687c0-3.773438 3.054687-6.828126 6.824219-6.828126 3.773437 0 6.828125 3.054688 6.828125 6.828126v27.304687c0 3.773437-3.054688 6.828125-6.828125 6.828125zm0 0"/><path d="m34.433594 273.066406h-27.308594c-3.769531 0-6.824219-3.054687-6.824219-6.828125 0-3.773437 3.054688-6.828125 6.824219-6.828125h27.308594c3.769531 0 6.824218 3.054688 6.824218 6.828125 0 3.773438-3.054687 6.828125-6.824218 6.828125zm0 0"/></g><path d="m232.40625 191.144531c-1.746094 0-3.492188-.667969-4.824219-1.992187-.328125-.332032-33.550781-33.082032-78.972656-46.054688-3.621094-1.039062-5.722656-4.820312-4.6875-8.4375 1.039063-3.628906 4.828125-5.695312 8.441406-4.695312 48.921875 13.980468 83.425781 48.082031 84.871094 49.527344 2.664063 2.667968 2.664063 6.980468.003906 9.648437-1.335937 1.328125-3.085937 2.003906-4.832031 2.003906zm0 0" fill="#fff"/></svg>